<?xml version="1.0" encoding="utf-8"?>
<!-- Generator: Adobe Illustrator 25.2.3, SVG Export Plug-In . SVG Version: 6.00 Build 0)  -->
<svg version="1.1" id="Layer_1" xmlns="http://www.w3.org/2000/svg" xmlns:xlink="http://www.w3.org/1999/xlink" x="0px" y="0px"
	 viewBox="0 0 438 196" style="enable-background:new 0 0 438 196;" xml:space="preserve">
<style type="text/css">
	.st0{fill:#FFFFFF;stroke:#FFFFFF;stroke-miterlimit:10;}
</style>
<g>
	<rect width="438" height="196"/>
	<g>
		<path class="st0" d="M122.1,111.6c-3.3,0.2-6.5,0.3-9.6,0.4c-3.3,0.2-6.6,0.4-9.9,0.6c-0.4,0-1,0.4-1-0.4c0-0.6-0.2-1.2,0.7-1.4
			c5.2-1.1,6.5-4.7,5.7-9.4c-0.6-3-1.7-5.9-3-8.7c-2.8-6-5.7-12-8.6-18.1c-0.3-0.6-0.6-0.9-1.3-0.9c-10.5,0-21,0-31.4,0
			c-0.7,0-1.1,0.3-1.4,0.9c-3.3,6.5-6.6,13.1-9.8,19.6c-0.9,1.9-1.5,3.9-1.7,6c-0.4,4.8,1.7,8.2,6.3,10.3c0.4,0.2,0.9,0.2,1,0.7
			c0.3,1-0.1,1.5-1.1,1.4c-4.2-0.4-8.4-1-12.7-1.1c-4.7-0.1-9.4,0.6-14.1,1c-0.4,0-1,0.4-1.1-0.3c-0.1-0.5-0.3-1.2,0.4-1.6
			c6.5-3.6,10.9-9.3,14.6-15.5s6.7-12.7,10-19.1c7.1-13.8,14.2-27.6,21.3-41.4c0.4-0.8,0.4-1.3,0-2.1C71,24.7,64.3,20.3,55.5,19.2
			C55,19.1,54.5,19,54,19c-0.8,0-1-0.2-1-1c0-0.9,0.6-0.7,1-0.7c6.9-0.1,13.7,0.8,20.6,0.9c2.2,0,3.2,0.8,4.1,2.7
			c14.2,29.9,28.5,59.7,42.8,89.6C121.8,110.9,122,111.1,122.1,111.6z M66.3,67.1c8.9,0,17.6,0,26.5,0c-4.2-8.9-8.4-17.7-12.7-26.6
			C75.4,49.5,70.9,58.2,66.3,67.1z"/>
		<path class="st0" d="M196.4,88.6c0-7.6,0-15.2,0-22.8c0-1,0.2-1.3,1.2-1.3c6.8,0.1,13.7-0.1,20.5,0.1c5.3,0.1,10.5,1.4,14.9,4.5
			c6.9,4.8,9.7,11.7,9.5,20c-0.3,13.7-10.5,23.8-24.2,23.9c-1.5,0-3-0.1-4.4-0.1c-0.7,0-0.9-0.3-0.9-1c0-4.1,0-8.2,0-12.4
			c0-0.8,0.2-0.9,0.9-0.9c2.1,0.1,4.2,0,6.3-0.5c5.5-1.3,7.9-5,7.5-10.7c-0.4-5.5-3.6-8.3-9.6-8.8c-2.2-0.2-4.4,0-6.6-0.1
			c-0.7,0-0.8,0.3-0.8,0.9c0,2.6,0,5.2,0,7.8c0,8.1,0,16.2,0,24.4c0,1.1-0.3,1.3-1.3,1.3c-3.9-0.1-7.8-0.1-11.8,0
			c-1.2,0-1.4-0.4-1.4-1.4C196.4,103.7,196.4,96.1,196.4,88.6z"/>
		<path class="st0" d="M164,72.8c0,13.2,0.1,26.3,0,39.5c-0.1,9.9-1,19.8-3.7,29.4c-3.8,13.5-12.3,23.4-24.3,30.4
			c-5.7,3.3-11.9,5.3-18.4,6.3c-0.4,0.1-1,0.5-1.1-0.2c-0.1-0.6-0.4-1.3,0.5-1.8c2.3-1.1,4.6-2.3,6.8-3.6
			c9.1-5.4,16.9-12.2,22.7-21.2c4.5-7,6.8-14.7,7.9-22.9c0.8-5.9,1-11.9,1-17.8c0-21.1,0-42.2,0-63.4c0-3.3-0.3-6.5-0.9-9.8
			c-1-5.8-4.6-9.3-10-11.1c-0.7-0.2-1.5-0.4-2.2-0.6c-0.5-0.1-0.7-0.4-0.7-0.9c0-1.5-0.1-1.5,1.5-1.4c6.7,0.4,13.4,0.9,20.1,1.1
			c1.1,0,0.9,0.7,0.9,1.3c0,14.1,0,28.2,0,42.2C164.1,69.9,164.1,71.3,164,72.8C164.1,72.8,164.1,72.8,164,72.8z"/>
		<path class="st0" d="M343.8,115.7c2.2,1,4.2,1.6,6.4,1.3c3.4-0.5,5.6-2.9,6.1-6.7c0.2-1.8,0.1-3.7,0.1-5.5c0-3.3,0-6.6,0-9.8
			c0-0.5,0-1-0.1-1.4c-0.3-3-2.1-4.5-4.9-4.2c-2.4,0.3-4.4,2.8-4.2,5.2c0.3,2.7,2.4,4.5,5.1,4.2c0.7-0.1,1.4-0.3,2.2-0.5
			c0,3.8,0,7.6,0,11.4c0,0.8-0.5,0.8-1,0.9c-6.4,2.1-12.8-0.1-16.7-5.8c-6.8-9.7-2.4-25,11.6-27.8c5.3-1,10.3-0.1,14.8,2.9
			c4,2.8,5.8,6.9,6.2,11.5c0.6,6.8,0.7,13.6,0,20.4c-1,10.8-10.2,18.2-20.9,17c-4.8-0.5-4.8-0.5-4.8-5.2
			C343.8,121.1,343.8,118.5,343.8,115.7z"/>
		<path class="st0" d="M187.2,136.6c-9.3-0.8-15.8,3.9-21.1,10.9c-0.3-0.6,0-0.8,0.2-1.1c2.9-5.9,4.4-12.1,4.9-18.6
			c0.5-6.7,0.6-13.3,0.6-20c0-27,0-54,0-81c0-1.8,0-1.8,1.8-1.9c6.7-0.2,13.4-0.7,20.1-1.1c0.4,0,1.1-0.3,1,0.5
			c0,0.6,0.3,1.3-0.8,1.5c-2.3,0.4-4.5,1.2-6.5,2.3c-3.9,2.2-5.3,5.9-6.1,10c-0.5,2.7-0.7,5.4-0.7,8.1c0,20.8,0,41.6,0,62.4
			c0,6.1,0.2,12.1,1.6,18.1C183.1,130.3,184.7,133.5,187.2,136.6z"/>
		<path class="st0" d="M377.4,101c0.1-3.1-0.3-7,0.2-10.8c0.8-6.4,6.1-12.1,12.2-13.2c7.2-1.3,13.8,1.5,17,7.5c1.6,3,2,6.3,2,9.6
			c0,5.8,0,11.7,0,17.5c0,0.8-0.2,1.1-1,1.1c-3.7,0-7.4-0.1-11.2,0c-1,0-1.1-0.3-1.1-1.2c0-6,0-11.9,0-17.9c0-0.6,0-1.3-0.2-1.9
			c-0.2-1.4-1.1-2.1-2.5-2c-1.3,0.1-2.1,0.9-2.1,2.3c-0.1,2.6,0,5.3,0,7.9c0,3.8,0,7.7,0,11.5c0,0.9-0.1,1.3-1.2,1.2
			c-3.7-0.1-7.4-0.1-11.2,0c-0.8,0-1.1-0.3-1.1-1.1C377.5,108.3,377.4,105,377.4,101z"/>
		<path class="st0" d="M273,97.2c-3,0-6,0-9,0c-0.9,0-1.3-0.3-1.4-1.2c-0.2-1.4-0.2-2.9,0.2-4.3c0.2-0.6,0.4-0.9,1.2-0.9
			c1.6,0.1,3.2,0,4.8,0c1.1,0.1,1.1-0.4,0.8-1.2c-1.2-3.1-5.2-3.8-7.6-1.2c-2.7,2.9-2.7,9.2,0,12.1c1.7,1.9,4.3,2,6.3,0.2
			c0.7-0.6,1.1-0.6,1.6,0.2c2,2.5,4.1,5,6.2,7.5c0.4,0.5,0.5,0.8-0.1,1.3c-10.5,7.7-26.4,2.7-29.2-10.8
			c-2.6-12.3,7.2-23.3,19.8-22.3c10.2,0.8,17.3,9.4,16.5,19.5c-0.1,0.8-0.3,1-1.1,1C279,97.2,276,97.2,273,97.2z"/>
		<path class="st0" d="M84.6,18.5c2.8,0,5.5,0,8.2,0c0.5,0,0.6,0.3,0.8,0.7c9,21.8,19.7,42.8,29.9,64c3.3,6.9,7,13.5,12,19.2
			c3,3.5,6.4,6.5,10.7,8.3c0.8,0.4,0.7,1,0.6,1.6c-0.1,0.7-0.7,0.3-1.1,0.3c-5.3-0.4-10.5-0.8-15.8-1c-0.6,0-0.9-0.2-1.2-0.8
			c-7.9-16.6-15.9-33.3-23.9-49.9c-6.5-13.6-13-27.2-19.6-40.8C85.1,19.7,84.9,19.2,84.6,18.5z"/>
		<path class="st0" d="M285,106.6c0-2,0-4.1,0-6.1c0-0.7,0.2-1,0.9-0.9h0.1c4.1-0.2,5.6-1.7,5.7-5.9c0.1-1.9,0.2-3.8,0.6-5.7
			c0.8-4.6,4.6-8.4,9.5-9.5c2.6-0.6,5.3-0.4,8-0.5c0.5,0,0.7,0.2,0.7,0.7c0,4.2,0,8.3,0,12.5c0,0.4,0,0.7-0.6,0.8
			c-3.2,0.2-4.1,1.2-4.5,4.9c-0.3,3-0.9,5.9-2.3,8.5c-2.7,5.1-7,7.7-12.7,8.2c-1.4,0.1-2.7,0.1-4.1,0.2c-1,0.1-1.5-0.1-1.4-1.3
			C285.1,110.5,285,108.5,285,106.6z"/>
		<path class="st0" d="M314.8,95.1c0-5.5,0-11,0-16.6c0-0.9,0.2-1.2,1.1-1.2c3.7,0.1,7.4,0,11.2,0c0.8,0,1.1,0.2,1.1,1.1
			c0,11.1,0,22.1,0,33.2c0,0.9-0.3,1-1.1,1c-3.7,0-7.4,0-11,0c-0.9,0-1.2-0.2-1.2-1.2C314.8,106.1,314.8,100.6,314.8,95.1z"/>
		<path class="st0" d="M209.6,43.3c1.7-2.7,3.3-5.2,4.9-7.8c1.1-1.8,2.3-3.5,3.4-5.4c1.2-2.2,3.2-2.5,5.4-2.3c0.8,0,0.5,0.7,0.5,1.1
			c0,4.3,0,8.6,0,12.8c0,0.4-0.1,0.8,0.1,1.2c0.5-0.3,0.6-0.9,0.8-1.3c2.3-4.2,4.6-8.5,6.9-12.8c0.4-0.8,0.9-1.1,1.8-1
			s2.4-0.4,2.7,0.2c0.4,0.7-0.7,1.7-1.1,2.6c-3.5,6.4-7.1,12.9-10.6,19.3c-1.4,2.5-3.1,3.3-5.9,2.8c-0.8-0.1-0.5-0.7-0.5-1.1
			c0-4.2,0-8.4,0-12.6c0-0.4,0-0.9,0-1.4c-0.6,0.1-0.7,0.5-0.8,0.8c-2.4,3.8-4.9,7.5-7.2,11.3c-1.6,2.7-3.9,3.2-6.6,3
			c-0.8-0.1-0.6-0.6-0.5-1c0.2-3,0.5-6,0.8-9.1s0.5-6.1,0.8-9.2c0.1-0.8-0.1-1.1-1-1.1c-2.3,0.1-4.6,0-7.2,0
			c0.9-1.5,1.7-2.8,2.5-4.1c0.3-0.4,0.7-0.3,1.1-0.3c2.3,0,4.6,0,7,0c2.8,0,4.1,1.4,3.9,4.2c-0.3,3.5-0.7,6.9-1.1,10.4
			C209.5,42.6,209.3,42.9,209.6,43.3z"/>
		<path class="st0" d="M285.5,40.5c-0.8,1.8-2,2.8-3.9,2.8c-2.9,0-5.8,0.1-8.6,0.1c-0.6,0-0.9,0.1-1.1,0.8c-0.8,4.2-3.6,6.4-7.4,7.7
			c-3,1-6,0.8-9,0.7c-1,0-1.7-0.7-2-1.9c-1.5,1.9-3.4,2-5.4,2c-4.1-0.1-8.2,0.3-12.2-0.3c-3.5-0.5-5.2-2.5-5-5.4
			c0.1-1.4,0.6-2.6,1.6-3.6c0.6-0.6,1.2-1.1,1.9-1.4c4-1.8,8.1-1.8,12.1-0.4c2.6,0.9,2.9,3.8,0.9,5.4c-0.2,0.2-0.5,0.4-0.8,0.4
			c-1.6,0-3.3,0-4.9,0c-0.6,0-0.5-0.3-0.3-0.7c0.5-1,1-2,1.5-3.1c-1.1,0-2.1,0-3.1,0c-0.5,0-0.6,0.3-0.8,0.7
			c-0.3,1.1-0.7,2.1-1.1,3.2c-0.5,1.6,0,2.3,1.7,2.3c2.8,0.1,5.5,0,8.3,0c1.6,0,3.2-0.1,4.8,0c0.7,0,1-0.2,1.2-0.9
			c1.7-5.5,3.4-11,5.1-16.5c0.3-0.9,0.7-1.2,1.6-1.1c1.4,0.1,2.7,0.1,4.1,0c1-0.1,1,0.3,0.8,1.1c-1.7,5.3-3.3,10.7-5,16
			c-0.5,1.5-0.5,1.5,1.2,1.2c1.4-0.3,2.4-1,3.2-2.1c0.3-0.5,0.4-0.8-0.1-1.2c-1.1-1-1.3-2.3-0.8-3.6c0.5-1.3,1.7-2.1,3.1-2.1
			c6-0.1,12-0.1,18-0.1C285,40.4,285.2,40.5,285.5,40.5z"/>
		<path class="st0" d="M321.4,74.4c-3.9,0-6.7-2.6-6.6-6.3c0-3.5,3-6.4,6.7-6.4c3.6,0,6.7,2.9,6.7,6.4
			C328.1,71.8,325.3,74.4,321.4,74.4z"/>
	</g>
</g>
</svg>
